<?xml version="1.0" encoding="UTF-8"?><svg id="logo-jeedom-grand-nom-couleur" xmlns="http://www.w3.org/2000/svg" viewBox="0 0 3062 1214"><defs><style>.cls-1{fill:#4aff64;}.cls-2{fill:#94ca02;}.cls-3{fill:#454449;}.cls-4{opacity:0;}</style></defs><g class="cls-4"><rect class="cls-1" y="-.22" width="3062" height="1214"/></g><g id="Jeedom-logo-color"><path id="Jeedom-wordmark" class="cls-3" d="M2783.9,540.09c-35.76,0-64.36,14.78-83.43,41.95-14.78-26.22-42.43-41.95-77.23-41.95-29.56,0-53.87,10.49-71.99,30.98v-25.26h-61.98v91.66c-13.12-57.12-63.55-97.38-127.28-97.38s-116.82,42.42-128.24,101.96v-196.34h-61.98v128.7c-19.55-21.45-46.72-34.32-79.14-34.32-51.26,0-92.94,31.43-110.17,78.15-19.09-46.9-64.9-78.15-121.05-78.15s-102.16,31.39-121.17,78.05c-19.11-46.84-64.9-78.05-121.01-78.05-60.38,0-108.82,36.13-124.91,88.5v-168.58h-65.79v224.99c0,26.22-19.55,46.24-46.24,46.24s-46.24-20.02-46.24-49.57h-67.7c0,65.78,48.63,112.97,112.99,112.97,58.85,0,103.94-38.87,111.78-92.74,14.75,54.65,64.28,92.74,127.07,92.74,55.7,0,101.65-29.2,122.33-72.85,20.27,43.78,65,72.85,119.85,72.85s101.53-29.13,122.25-72.67c18.38,43.68,58.78,72.67,108.01,72.67,32.42,0,59.59-12.87,79.14-34.32v28.6h61.98v-96.23c11.42,59.53,62.82,101.96,128.24,101.96s114.16-40.26,127.28-97.38v91.66h61.98v-138.71c0-30.03,20.98-50.05,51.49-50.05,28.6,0,47.68,19.54,47.68,49.1v139.67h61.98v-138.71c0-30.03,20.5-50.05,51.01-50.05s47.67,19.54,47.67,49.1v139.67h61.98v-158.26c0-54.82-35.76-90.57-89.15-90.57ZM1619.24,593.96c31.94,0,56.73,20.02,64.36,49.58h-128.24c8.58-30.03,32.42-49.58,63.88-49.58ZM1678.83,713.6c-10.97,15.73-31.94,27.17-57.21,27.17-33.37,0-58.64-20.5-66.74-51.96h177.62c1.39,8.63,3.61,16.91,6.59,24.79h-60.25ZM1861.41,593.96c31.94,0,56.73,20.02,64.36,49.58h-128.24c8.58-30.03,32.42-49.58,63.88-49.58ZM1921.01,713.6c-10.97,15.73-31.94,27.17-57.21,27.17-33.37,0-58.64-20.5-66.74-51.96h178.41c1.26,8.63,3.27,16.91,5.97,24.79h-60.43ZM2104.55,734.58c-38.14,0-66.74-29.08-66.74-67.21s28.6-67.21,66.74-67.21,67.22,29.08,67.22,67.21-28.6,67.21-67.22,67.21ZM2361.99,734.58c-38.14,0-66.74-29.08-66.74-67.21s28.6-67.21,66.74-67.21,66.74,29.08,66.74,67.21-28.13,67.21-66.74,67.21Z"/><rect class="cls-3" x="188.93" y="161.78" width="890" height="890" rx="90" ry="90"/><path id="Jeedom-logomark" class="cls-2" d="M883.17,497.14l-158.05-133.66c-5.73-4.09-13.45-4-19.08.22l-100.37,75.28c-4.07,3.05-6.46,7.84-6.46,12.92v161.33h-119.52v-27.86c25.67-11.22,43.61-36.82,43.61-66.63,0-40.14-32.54-72.68-72.68-72.68s-72.68,32.54-72.68,72.68c0,29.8,17.94,55.41,43.61,66.63v77.12c0,8.92,7.23,16.15,16.15,16.15h203.51c8.92,0,16.15-7.23,16.15-16.15v-181.52c0-5.08,2.39-9.87,6.46-12.92l42.66-31.99c5.42-4.07,12.81-4.32,18.49-.62l99.48,83.56c4.58,2.98,7.35,8.08,7.35,13.54v146.11h-129.21c-8.92,0-16.15,7.23-16.15,16.15v142.13c0,8.92,7.23,16.15,16.15,16.15h171.21c8.92,0,16.15-7.23,16.15-16.15v-326.65c0-5.22-2.52-10.11-6.76-13.14ZM450.61,489.68c16.03,0,29.07,13.04,29.07,29.07s-13.04,29.07-29.07,29.07-29.07-13.04-29.07-29.07,13.04-29.07,29.07-29.07ZM831.79,794.94h-87.22v-58.15h87.22v58.15ZM657.35,723.87v25.84c0,8.92-7.23,16.15-16.15,16.15h-203.51c-8.92,0-16.15-7.23-16.15-16.15v-25.84c0-8.92,7.23-16.15,16.15-16.15h203.51c8.92,0,16.15,7.23,16.15,16.15ZM657.35,811.06v25.84c0,8.92-7.23,16.15-16.15,16.15h-203.51c-8.92,0-16.15-7.23-16.15-16.15v-25.84c0-8.92,7.23-16.15,16.15-16.15h203.51c8.92,0,16.15,7.23,16.15,16.15Z"/></g></svg>