<?xml version="1.0" encoding="UTF-8"?><svg id="logo-jeedom-luna-grand-nom-couleur" xmlns="http://www.w3.org/2000/svg" viewBox="0 0 2700 1214"><defs><style>.cls-1{fill:#4aff64;}.cls-2{fill:#94ca02;}.cls-3{fill:#454449;}.cls-4{opacity:0;}</style></defs><g id="Transparent-background-3"><g class="cls-4"><rect class="cls-1" width="2700" height="1214"/></g></g><g id="Jeedom-Luna-logo-color"><path id="Luna-wordmark" class="cls-3" d="M1325.07,465.86v214.8c0,7.79,1.05,15.18,3.17,22.16,2.11,6.99,5.76,12.99,10.96,18.02,5.19,5.04,12.09,9.01,20.7,11.93,8.6,2.92,19.4,4.38,32.39,4.38h127.61v57.48h-131.02c-21.76,0-40.35-2.84-55.77-8.52-15.43-5.68-28.01-13.55-37.75-23.62-9.74-10.06-16.8-21.99-21.19-35.8-4.38-13.8-6.58-28.98-6.58-45.54v-215.29h57.47ZM1621.7,537.46v153.92c0,15.27,5.43,27.93,16.32,37.99,10.88,10.07,26.55,15.1,47,15.1h41.89c20.46,0,36.04-5.03,46.76-15.1,10.71-10.06,16.07-22.72,16.07-37.99v-153.92h50.66v155.86c0,14.94-2.36,28.58-7.06,40.91-4.71,12.34-11.77,22.98-21.19,31.9-9.42,8.93-21.03,15.91-34.83,20.94-13.81,5.04-29.95,7.55-48.46,7.55h-47.73c-18.51,0-34.67-2.51-48.46-7.55-13.81-5.03-25.41-12.01-34.83-20.94-9.42-8.93-16.48-19.56-21.19-31.9-4.71-12.34-7.06-25.97-7.06-40.91v-155.86h52.12ZM2055.19,537.46c43.84,0,76.39,9.83,97.66,29.47,21.26,19.65,31.9,47.33,31.9,83.05v144.66h-52.12v-144.66c0-20.46-6.09-36.04-18.27-46.76-12.18-10.72-31.9-16.07-59.18-16.07h-84.26c-4.22,0-6.33,2.44-6.33,7.31v200.19h-51.63v-217.24c0-15.26,2.75-25.73,8.28-31.42,5.52-5.68,14.77-8.52,27.76-8.52h106.18ZM2421.95,537.46c15.91,0,29.54,2.12,40.91,6.33,11.36,4.22,20.7,10.15,28.01,17.78,7.31,7.63,12.58,16.64,15.83,27.03,3.24,10.4,4.87,21.6,4.87,33.61v120.79c0,9.42-.73,17.38-2.19,23.87-1.46,6.5-4.14,11.77-8.04,15.83-3.9,4.06-9.34,7.06-16.32,9.01-6.99,1.95-15.83,2.92-26.55,2.92h-120.31c-30.53,0-52.53-6.98-66-20.94-13.48-13.96-20.21-33.12-20.21-57.48,0-11.69,1.54-22.08,4.63-31.17,3.08-9.09,8.04-16.8,14.86-23.14,6.82-6.33,15.75-11.2,26.79-14.61,11.04-3.41,24.51-5.11,40.43-5.11h122.26v-19.48c0-10.06-3.01-18.51-9.01-25.33-6.01-6.82-16.16-10.23-30.44-10.23h-153.92v-49.68h154.4ZM2446.79,744.47c9.41,0,14.13-4.38,14.13-13.15v-48.22h-121.28c-13.64,0-23.22,2.68-28.74,8.04-5.53,5.36-8.28,12.75-8.28,22.16s2.75,16.97,8.28,22.65c5.52,5.68,14.77,8.52,27.76,8.52h108.13Z"/><g id="Jeedom-Luna-logo-color-2"><rect class="cls-3" x="188.18" y="161.78" width="890" height="890" rx="90" ry="90"/><path id="Jeedom-logomark" class="cls-2" d="M882.41,497.14l-158.05-133.66c-5.73-4.09-13.45-4-19.08.22l-100.37,75.28c-4.07,3.05-6.46,7.84-6.46,12.92v161.33h-119.52v-27.86c25.67-11.22,43.61-36.82,43.61-66.63,0-40.14-32.54-72.68-72.68-72.68s-72.68,32.54-72.68,72.68c0,29.8,17.94,55.41,43.61,66.63v77.12c0,8.92,7.23,16.15,16.15,16.15h203.51c8.92,0,16.15-7.23,16.15-16.15v-181.52c0-5.08,2.39-9.87,6.46-12.92l42.66-31.99c5.42-4.07,12.81-4.32,18.49-.62l99.48,83.56c4.58,2.98,7.35,8.08,7.35,13.54v146.11h-129.21c-8.92,0-16.15,7.23-16.15,16.15v142.13c0,8.92,7.23,16.15,16.15,16.15h171.21c8.92,0,16.15-7.23,16.15-16.15v-326.65c0-5.22-2.52-10.11-6.76-13.14ZM449.86,489.68c16.03,0,29.07,13.04,29.07,29.07s-13.04,29.07-29.07,29.07-29.07-13.04-29.07-29.07,13.04-29.07,29.07-29.07ZM831.03,794.94h-87.22v-58.15h87.22v58.15ZM656.59,723.87v25.84c0,8.92-7.23,16.15-16.15,16.15h-203.51c-8.92,0-16.15-7.23-16.15-16.15v-25.84c0-8.92,7.23-16.15,16.15-16.15h203.51c8.92,0,16.15,7.23,16.15,16.15ZM656.59,811.06v25.84c0,8.92-7.23,16.15-16.15,16.15h-203.51c-8.92,0-16.15-7.23-16.15-16.15v-25.84c0-8.92,7.23-16.15,16.15-16.15h203.51c8.92,0,16.15,7.23,16.15,16.15Z"/></g></g></svg>