<?xml version="1.0" encoding="UTF-8"?><svg id="logo-jeedom-petit-nom-couleur" xmlns="http://www.w3.org/2000/svg" viewBox="0 0 1024 1024"><defs><style>.cls-1{fill-rule:evenodd;}.cls-1,.cls-2{fill:#94ca02;}.cls-3{fill:#454449;}.cls-4{fill:#00ff18;opacity:0;}</style></defs><g id="Transparent-background-5"><rect id="_Rectangle_" class="cls-4" width="1024" height="1024"/></g><g id="Jeedom-logomark-color"><g id="Background"><rect class="cls-3" x="67" y="67" width="890" height="890" rx="90" ry="90"/></g><g id="Jeedom-logomark-color-2"><path class="cls-1" d="M761.24,402.36l-158.05-133.66c-5.73-4.09-13.45-4-19.08.22l-100.37,75.28c-4.07,3.05-6.46,7.84-6.46,12.92v161.33h-119.52v-27.86c25.67-11.22,43.61-36.82,43.61-66.63,0-40.14-32.54-72.68-72.68-72.68s-72.68,32.54-72.68,72.68c0,29.8,17.94,55.41,43.61,66.63v77.12c0,8.92,7.23,16.15,16.15,16.15h203.51c8.92,0,16.15-7.23,16.15-16.15v-181.52c0-5.08,2.39-9.87,6.46-12.92l42.66-31.99c5.42-4.07,12.81-4.32,18.49-.62l99.48,83.56c4.58,2.98,7.35,8.08,7.35,13.54v146.11h-129.21c-8.92,0-16.15,7.23-16.15,16.15v142.13c0,8.92,7.23,16.15,16.15,16.15h171.21c8.92,0,16.15-7.23,16.15-16.15v-326.65c0-5.22-2.52-10.11-6.76-13.14ZM328.68,394.9c16.03,0,29.07,13.04,29.07,29.07s-13.04,29.07-29.07,29.07-29.07-13.04-29.07-29.07,13.04-29.07,29.07-29.07ZM709.85,700.16h-87.22v-58.15h87.22v58.15Z"/><rect class="cls-2" x="299.61" y="612.94" width="235.81" height="58.15" rx="16.15" ry="16.15"/><rect class="cls-2" x="299.61" y="700.13" width="235.81" height="58.15" rx="16.15" ry="16.15"/></g></g></svg>