<?xml version="1.0" encoding="UTF-8"?><svg id="logo-jeedom-atlas-grand-nom-couleur" xmlns="http://www.w3.org/2000/svg" viewBox="0 0 2736 1214"><defs><style>.cls-1{fill:#4aff64;}.cls-2{fill:#94ca02;}.cls-3{fill:#454449;}.cls-4{opacity:0;}</style></defs><g id="Jeedom-Atlas-logo-color"><g class="cls-4"><rect class="cls-1" width="2736" height="1214"/></g><g id="Atlas"><path class="cls-3" d="M2537.4,527.64v50.01h-143.17c-12.1,0-20.76,2.45-25.98,7.36-5.23,4.9-7.84,12.26-7.84,22.06,0,9.15,2.53,16.1,7.6,20.84,5.06,4.74,14.78,7.11,29.17,7.11h60.79c17.97,0,32.76,1.96,44.37,5.88,11.6,3.92,20.75,9.15,27.46,15.69,6.7,6.54,11.35,14.22,13.97,23.04,2.61,8.83,3.92,18.31,3.92,28.43,0,11.45-1.55,21.99-4.66,31.63-3.11,9.64-8.09,17.89-14.95,24.76-6.86,6.86-15.69,12.26-26.48,16.18-10.78,3.92-23.7,5.88-38.73,5.88h-150.52v-50.5h150.52c12.09,0,20.75-2.21,25.99-6.62,5.22-4.41,7.84-11.68,7.84-21.82s-2.86-17.9-8.58-22.31c-5.72-4.41-15.12-6.62-28.19-6.62h-61.29c-17.98,0-32.69-2.04-44.12-6.13-11.45-4.09-20.51-9.64-27.21-16.67-6.7-7.03-11.36-15.11-13.97-24.27-2.62-9.15-3.92-18.63-3.92-28.43,0-23.21,6.53-41.59,19.61-55.16,13.07-13.56,34.64-20.35,64.72-20.35h143.65Z"/><path class="cls-3" d="M2152.76,527.64c16.01,0,29.74,2.13,41.18,6.38,11.44,4.25,20.83,10.22,28.19,17.89,7.35,7.68,12.66,16.76,15.93,27.21,3.26,10.46,4.9,21.74,4.9,33.83v121.59c0,9.48-.74,17.49-2.21,24.02-1.47,6.54-4.17,11.85-8.09,15.93-3.92,4.09-9.4,7.11-16.43,9.07-7.03,1.96-15.93,2.94-26.72,2.94h-121.1c-30.73,0-52.87-7.03-66.43-21.08-13.56-14.05-20.35-33.34-20.35-57.85,0-11.77,1.55-22.22,4.66-31.38,3.1-9.15,8.09-16.91,14.96-23.29,6.86-6.37,15.85-11.27,26.96-14.71,11.11-3.43,24.68-5.15,40.69-5.15h123.06v-19.61c0-10.13-3.02-18.63-9.07-25.49-6.05-6.86-16.26-10.3-30.64-10.3h-154.93v-50.01h155.42ZM2177.76,736.01c9.48,0,14.22-4.41,14.22-13.24v-48.54h-122.08c-13.73,0-23.37,2.7-28.93,8.09-5.56,5.39-8.34,12.83-8.34,22.31s2.78,17.09,8.34,22.8c5.55,5.72,14.87,8.58,27.95,8.58h108.84Z"/><path class="cls-3" d="M1912.52,415.36v371.15h-51.97v-371.15h51.97Z"/><path class="cls-3" d="M1665.36,527.64v-61.29h52.46v61.29h71.58v50.01h-71.58v122.57c0,14.71,2.7,24.84,8.09,30.4,5.39,5.56,14.3,8.34,26.72,8.34h35.79v47.56h-46.58c-13.41,0-24.93-1.47-34.56-4.41-9.65-2.94-17.57-7.84-23.78-14.71-6.21-6.86-10.79-16.01-13.73-27.46-2.94-11.44-4.41-25.66-4.41-42.66v-119.63h-35.3v-50.01h35.3Z"/><path class="cls-3" d="M1328.25,784.72h-60.53l110.34-279.34c5.89-14.9,14.2-25.37,24.91-31.43,10.71-6.05,24.44-9.08,41.2-9.08s30.03,3.03,40.74,9.08c10.71,6.05,18.86,16.53,24.44,31.43l106.15,279.34h-60.99l-95.44-252.8c-2.8-7.14-7.92-10.71-15.36-10.71s-12.73,3.57-15.83,10.71l-99.63,252.8Z"/></g><g id="Jeedom-logo-color"><rect class="cls-3" x="188.3" y="161.78" width="890" height="890" rx="90" ry="90"/><path id="Jeedom-logomark" class="cls-2" d="M882.54,497.14l-158.05-133.66c-5.73-4.09-13.45-4-19.08.22l-100.37,75.28c-4.07,3.05-6.46,7.84-6.46,12.92v161.33h-119.52v-27.86c25.67-11.22,43.61-36.82,43.61-66.63,0-40.14-32.54-72.68-72.68-72.68s-72.68,32.54-72.68,72.68c0,29.8,17.94,55.41,43.61,66.63v77.12c0,8.92,7.23,16.15,16.15,16.15h203.51c8.92,0,16.15-7.23,16.15-16.15v-181.52c0-5.08,2.39-9.87,6.46-12.92l42.66-31.99c5.42-4.07,12.81-4.32,18.49-.62l99.48,83.56c4.58,2.98,7.35,8.08,7.35,13.54v146.11h-129.21c-8.92,0-16.15,7.23-16.15,16.15v142.13c0,8.92,7.23,16.15,16.15,16.15h171.21c8.92,0,16.15-7.23,16.15-16.15v-326.65c0-5.22-2.52-10.11-6.76-13.14ZM449.98,489.68c16.03,0,29.07,13.04,29.07,29.07s-13.04,29.07-29.07,29.07-29.07-13.04-29.07-29.07,13.04-29.07,29.07-29.07ZM831.16,794.94h-87.22v-58.15h87.22v58.15ZM656.72,723.87v25.84c0,8.92-7.23,16.15-16.15,16.15h-203.51c-8.92,0-16.15-7.23-16.15-16.15v-25.84c0-8.92,7.23-16.15,16.15-16.15h203.51c8.92,0,16.15,7.23,16.15,16.15ZM656.72,811.06v25.84c0,8.92-7.23,16.15-16.15,16.15h-203.51c-8.92,0-16.15-7.23-16.15-16.15v-25.84c0-8.92,7.23-16.15,16.15-16.15h203.51c8.92,0,16.15,7.23,16.15,16.15Z"/></g></g></svg>