<?xml version="1.0" encoding="UTF-8"?><svg id="logo-jeedom-petit-nom-blanc" xmlns="http://www.w3.org/2000/svg" viewBox="0 0 1024 1024"><defs><style>.cls-1{fill:#fff;}.cls-2{fill:#00ff18;opacity:0;}</style></defs><g id="Transparent-background-4"><rect id="_Rectangle_" class="cls-2" width="1024" height="1024"/></g><g id="Jeedom-logomark-monochrome-on-light"><path id="Jeedom-logomark-monochrome-on-light-2" class="cls-1" d="M357.75,423.97c0,16.03-13.04,29.07-29.07,29.07s-29.07-13.04-29.07-29.07,13.04-29.07,29.07-29.07,29.07,13.04,29.07,29.07ZM622.64,700.16h87.22v-58.15h-87.22v58.15ZM957,157v710c0,49.71-40.29,90-90,90H157c-49.71,0-90-40.29-90-90V157c0-49.71,40.29-90,90-90h710c49.71,0,90,40.29,90,90ZM535.42,716.28c0-8.92-7.23-16.15-16.15-16.15h-203.51c-8.92,0-16.15,7.23-16.15,16.15v25.84c0,8.92,7.23,16.15,16.15,16.15h203.51c8.92,0,16.15-7.23,16.15-16.15v-25.84ZM535.42,629.09c0-8.92-7.23-16.15-16.15-16.15h-203.51c-8.92,0-16.15,7.23-16.15,16.15v25.84c0,8.92,7.23,16.15,16.15,16.15h203.51c8.92,0,16.15-7.23,16.15-16.15v-25.84ZM768,415.51c0-5.22-2.52-10.11-6.76-13.14l-158.05-133.66c-5.73-4.09-13.45-4-19.08.22l-100.37,75.28c-4.07,3.05-6.46,7.84-6.46,12.92v161.33h-119.52v-27.86c25.67-11.22,43.61-36.82,43.61-66.63,0-40.14-32.54-72.68-72.68-72.68s-72.68,32.54-72.68,72.68c0,29.8,17.94,55.41,43.61,66.63v77.12c0,8.92,7.23,16.15,16.15,16.15h203.51c8.92,0,16.15-7.23,16.15-16.15v-181.52c0-5.08,2.39-9.87,6.46-12.92l42.66-31.99c5.42-4.07,12.81-4.32,18.49-.62l99.48,83.56c4.58,2.98,7.35,8.08,7.35,13.54v146.11h-129.21c-8.92,0-16.15,7.23-16.15,16.15v142.13c0,8.92,7.23,16.15,16.15,16.15h171.21c8.92,0,16.15-7.23,16.15-16.15v-326.65Z"/></g></svg>