<?xml version="1.0" encoding="UTF-8"?><svg xmlns="http://www.w3.org/2000/svg" viewBox="0 0 1024 1024"><defs><style>.cls-1{fill:#00ff18;opacity:0;}</style></defs><g id="logo-jeedom-petit-nom-noir"><g id="Transparent-background_-_copie_4"><rect id="_Rectangle_" class="cls-1" width="1024" height="1024"/></g></g><g id="logo-jeedom-sans-nom-noir"><rect x="622.64" y="642.02" width="87.22" height="58.15"/><path d="M328.68,394.9c-16.03,0-29.07,13.04-29.07,29.07s13.04,29.07,29.07,29.07,29.07-13.04,29.07-29.07-13.04-29.07-29.07-29.07Z"/><path d="M867,67H157c-49.71,0-90,40.29-90,90v710c0,49.71,40.29,90,90,90h710c49.71,0,90-40.29,90-90V157c0-49.71-40.29-90-90-90ZM535.42,742.12c0,8.92-7.23,16.15-16.15,16.15h-203.51c-8.92,0-16.15-7.23-16.15-16.15v-25.84c0-8.92,7.23-16.15,16.15-16.15h203.51c8.92,0,16.15,7.23,16.15,16.15v25.84ZM535.42,654.94c0,8.92-7.23,16.15-16.15,16.15h-203.51c-8.92,0-16.15-7.23-16.15-16.15v-25.84c0-8.92,7.23-16.15,16.15-16.15h203.51c8.92,0,16.15,7.23,16.15,16.15v25.84ZM768,742.15c0,8.92-7.23,16.15-16.15,16.15h-171.21c-8.92,0-16.15-7.23-16.15-16.15v-142.13c0-8.92,7.23-16.15,16.15-16.15h129.21v-146.11c0-5.47-2.77-10.56-7.35-13.54l-99.48-83.56c-5.68-3.69-13.07-3.45-18.49.62l-42.66,31.99c-4.07,3.05-6.46,7.84-6.46,12.92v181.52c0,8.92-7.23,16.15-16.15,16.15h-203.51c-8.92,0-16.15-7.23-16.15-16.15v-77.12c-25.67-11.22-43.61-36.82-43.61-66.63,0-40.14,32.54-72.68,72.68-72.68s72.68,32.54,72.68,72.68c0,29.8-17.94,55.41-43.61,66.63v27.86h119.52v-161.33c0-5.08,2.39-9.87,6.46-12.92l100.37-75.28c5.63-4.22,13.35-4.31,19.08-.22l158.05,133.66c4.24,3.03,6.76,7.93,6.76,13.14v326.65Z"/></g></svg>